<?xml version="1.0" encoding="UTF-8" standalone="no"?>
<!-- Created with Inkscape (http://www.inkscape.org/) -->

<svg
   xmlns:dc="http://purl.org/dc/elements/1.1/"
   xmlns:cc="http://creativecommons.org/ns#"
   xmlns:rdf="http://www.w3.org/1999/02/22-rdf-syntax-ns#"
   xmlns:svg="http://www.w3.org/2000/svg"
   xmlns="http://www.w3.org/2000/svg"
   xmlns:xlink="http://www.w3.org/1999/xlink"
   xmlns:sodipodi="http://sodipodi.sourceforge.net/DTD/sodipodi-0.dtd"
   xmlns:inkscape="http://www.inkscape.org/namespaces/inkscape"
   width="327.88214"
   height="110.11273"
   id="svg3057"
   version="1.1"
   inkscape:version="0.48.2 r9819"
   sodipodi:docname="PN_diode_with_electrical_symbol.svg">
  <defs
     id="defs3059">
    <linearGradient
       x1="86.526733"
       y1="39.83073"
       x2="86.654266"
       y2="39.83073"
       id="linearGradient8147"
       xlink:href="#linearGradient8149"
       gradientUnits="userSpaceOnUse"
       gradientTransform="translate(-537.94999,298.26652)" />
    <linearGradient
       id="linearGradient8149">
      <stop
         style="stop-color:black;stop-opacity:1"
         offset="0"
         id="stop8151" />
      <stop
         style="stop-color:#b5b5b5;stop-opacity:1"
         offset="1"
         id="stop8153" />
    </linearGradient>
    <linearGradient
       x1="86.526733"
       y1="39.83073"
       x2="86.654266"
       y2="39.83073"
       id="linearGradient7258"
       xlink:href="#linearGradient7252"
       gradientUnits="userSpaceOnUse"
       gradientTransform="translate(204.3251,298.22497)" />
    <linearGradient
       id="linearGradient7252">
      <stop
         style="stop-color:black;stop-opacity:1"
         offset="0"
         id="stop7254" />
      <stop
         style="stop-color:#e7e7e7;stop-opacity:1"
         offset="1"
         id="stop7256" />
    </linearGradient>
  </defs>
  <sodipodi:namedview
     id="base"
     pagecolor="#ffffff"
     bordercolor="#666666"
     borderopacity="1.0"
     inkscape:pageopacity="0.0"
     inkscape:pageshadow="2"
     inkscape:zoom="1.979899"
     inkscape:cx="170.59761"
     inkscape:cy="58.981946"
     inkscape:document-units="px"
     inkscape:current-layer="layer1"
     showgrid="false"
     inkscape:window-width="1366"
     inkscape:window-height="705"
     inkscape:window-x="-8"
     inkscape:window-y="-8"
     inkscape:window-maximized="1"
     fit-margin-top="0"
     fit-margin-left="0"
     fit-margin-right="0"
     fit-margin-bottom="0" />
  <metadata
     id="metadata3062">
    <rdf:RDF>
      <cc:Work
         rdf:about="">
        <dc:format>image/svg+xml</dc:format>
        <dc:type
           rdf:resource="http://purl.org/dc/dcmitype/StillImage" />
        <dc:title />
      </cc:Work>
    </rdf:RDF>
  </metadata>
  <g
     inkscape:label="Layer 1"
     inkscape:groupmode="layer"
     id="layer1"
     transform="translate(-210.34465,-306.85843)">
    <path
       inkscape:connector-curvature="0"
       d="m 228.88489,340.92621 a 3.1803188,3.1803188 0 1 1 0.052,-0.0273"
       style="fill:#ffffff;fill-opacity:0;stroke:#000000;stroke-width:2.10800004;stroke-linecap:square;stroke-linejoin:miter;stroke-miterlimit:4;stroke-opacity:1;stroke-dasharray:none;stroke-dashoffset:5.12000008"
       id="path1928" />
    <path
       inkscape:connector-curvature="0"
       d="m 230.62155,338.09725 52.43731,0"
       style="fill:none;stroke:#000000;stroke-width:2;stroke-linecap:butt;stroke-linejoin:miter;stroke-miterlimit:4;stroke-opacity:1;stroke-dasharray:none"
       id="path2817" />
    <path
       inkscape:connector-curvature="0"
       d="m 513.68661,340.92621 a 3.1803188,3.1803188 0 1 0 -0.052,-0.0273"
       style="fill:#ffffff;fill-opacity:0;stroke:#000000;stroke-width:2.10800004;stroke-linecap:square;stroke-linejoin:miter;stroke-miterlimit:4;stroke-opacity:1;stroke-dasharray:none;stroke-dashoffset:5.12000008"
       id="path4589" />
    <path
       inkscape:connector-curvature="0"
       d="m 511.95006,338.09725 -52.43732,0"
       style="fill:none;stroke:#000000;stroke-width:2;stroke-linecap:butt;stroke-linejoin:miter;stroke-miterlimit:4;stroke-opacity:1;stroke-dasharray:none"
       id="path4591" />
    <rect
       width="89.341148"
       height="61.394531"
       rx="3.7684734"
       ry="3.098125"
       x="281.78345"
       y="307.35843"
       style="fill:url(#linearGradient7258);fill-opacity:1;stroke:#000000;stroke-width:1;stroke-linecap:square;stroke-linejoin:miter;stroke-miterlimit:3.5;stroke-opacity:1;stroke-dasharray:none;stroke-dashoffset:5.12000008"
       id="rect6365" />
    <rect
       width="89.341148"
       height="61.394531"
       rx="3.7684734"
       ry="3.098125"
       x="-460.49164"
       y="307.39996"
       transform="scale(-1,1)"
       style="fill:url(#linearGradient8147);fill-opacity:1;stroke:#000000;stroke-width:1;stroke-linecap:square;stroke-linejoin:miter;stroke-miterlimit:3.5;stroke-opacity:1;stroke-dasharray:none;stroke-dashoffset:5.12000008"
       id="rect8145" />
    <path
       inkscape:connector-curvature="0"
       d="m 400.52944,330.76424 0,3.96094 -1.07813,0 0,-3.92578 c 0,-0.62109 -0.1211,-1.08593 -0.36328,-1.39453 -0.24219,-0.30859 -0.60547,-0.46289 -1.08984,-0.46289 -0.58204,0 -1.04102,0.18555 -1.37696,0.55664 -0.33594,0.3711 -0.5039,0.87696 -0.5039,1.51758 l 0,3.70898 -1.08399,0 0,-6.5625 1.08399,0 0,1.01953 c 0.25781,-0.39452 0.56152,-0.68944 0.91113,-0.88476 0.34961,-0.19531 0.75293,-0.29297 1.20996,-0.29297 0.7539,0 1.32422,0.2334 1.71094,0.70019 0.38671,0.46681 0.58007,1.15333 0.58008,2.05957 l 0,0 z m 1.61719,0.19336 3.1582,0 0,0.96094 -3.1582,0 0,-0.96094 z m 5.94726,-4.6582 0,1.86328 2.2207,0 0,0.83789 -2.2207,0 0,3.5625 c 0,0.53516 0.0732,0.87891 0.21973,1.03125 0.14648,0.15235 0.44433,0.22852 0.89355,0.22852 l 1.10742,0 0,0.90234 -1.10742,0 c -0.83203,0 -1.40625,-0.15527 -1.72265,-0.46582 -0.31641,-0.31055 -0.47461,-0.87597 -0.47461,-1.69629 l 0,-3.5625 -0.79102,0 0,-0.83789 0.79102,0 0,-1.86328 1.08398,0 z m 6.375,9.03516 c -0.30469,0.78124 -0.60157,1.29101 -0.89062,1.52929 -0.28907,0.23828 -0.67579,0.35742 -1.16016,0.35743 l -0.86133,0 0,-0.90235 0.63281,0 c 0.29688,0 0.52735,-0.0703 0.69141,-0.21094 0.16406,-0.14062 0.3457,-0.47265 0.54492,-0.99609 l 0.19336,-0.49219 -2.6543,-6.45703 1.14258,0 2.05078,5.13281 2.05079,-5.13281 1.14257,0 -2.88281,7.17188 z m 5.41406,-1.59375 0,3.48047 -1.08398,0 0,-9.0586 1.08398,0 0,0.9961 c 0.22656,-0.39062 0.5127,-0.68066 0.8584,-0.87012 0.3457,-0.18945 0.75879,-0.28418 1.23926,-0.28418 0.79687,0 1.44433,0.31641 1.94238,0.94922 0.49804,0.63281 0.74707,1.46485 0.74707,2.49609 0,1.03125 -0.24903,1.86328 -0.74707,2.49609 -0.49805,0.63282 -1.14551,0.94922 -1.94238,0.94922 -0.48047,0 -0.89356,-0.0947 -1.23926,-0.28418 -0.3457,-0.18945 -0.63184,-0.47949 -0.8584,-0.87011 l 0,0 z m 3.66797,-2.29102 c 0,-0.79296 -0.16309,-1.41503 -0.48926,-1.86621 -0.32617,-0.45117 -0.77441,-0.67675 -1.34472,-0.67676 -0.57032,1e-5 -1.01856,0.22559 -1.34473,0.67676 -0.32617,0.45118 -0.48926,1.07325 -0.48926,1.86621 0,0.79297 0.16309,1.41504 0.48926,1.86621 0.32617,0.45117 0.77441,0.67676 1.34473,0.67676 0.57031,0 1.01855,-0.22559 1.34472,-0.67676 0.32617,-0.45117 0.48926,-1.07324 0.48926,-1.86621 l 0,0 z m 8.51953,-0.27539 0,0.52734 -4.95703,0 c 0.0469,0.74219 0.27051,1.30762 0.6709,1.69629 0.40039,0.38868 0.958,0.58301 1.67285,0.58301 0.41406,0 0.81543,-0.0508 1.2041,-0.15234 0.38867,-0.10156 0.77441,-0.25391 1.15723,-0.45703 l 0,1.01953 c -0.38672,0.16406 -0.78321,0.28906 -1.18945,0.375 -0.40626,0.0859 -0.81837,0.1289 -1.23633,0.1289 -1.04688,0 -1.87598,-0.30468 -2.48731,-0.91406 -0.61133,-0.60937 -0.91699,-1.43359 -0.91699,-2.47266 0,-1.07421 0.29004,-1.92675 0.87012,-2.55761 0.58008,-0.63086 1.3623,-0.94629 2.34668,-0.94629 0.88281,0 1.58105,0.28418 2.09473,0.85254 0.51366,0.56836 0.7705,1.34082 0.7705,2.31738 l 0,0 z m -1.07812,-0.31641 c -0.008,-0.58984 -0.17286,-1.06054 -0.49512,-1.41211 -0.32227,-0.35155 -0.74903,-0.52733 -1.28027,-0.52734 -0.60157,10e-6 -1.08301,0.16993 -1.44434,0.50977 -0.36133,0.33985 -0.56934,0.81836 -0.62402,1.43554 l 3.84375,-0.006 z m -31.73438,12.49805 0,1.01953 c -0.30469,-0.15624 -0.6211,-0.27343 -0.94922,-0.35156 -0.32812,-0.0781 -0.66797,-0.11718 -1.01953,-0.11719 -0.53516,1e-5 -0.93652,0.082 -1.2041,0.2461 -0.26758,0.16406 -0.40137,0.41016 -0.40137,0.73828 0,0.25 0.0957,0.44629 0.28711,0.58886 0.19141,0.14259 0.57617,0.27833 1.1543,0.40723 l 0.36914,0.082 c 0.76562,0.16407 1.30957,0.39551 1.63184,0.69434 0.32226,0.29883 0.48339,0.71582 0.4834,1.25097 -10e-6,0.60938 -0.24122,1.0918 -0.72364,1.44727 -0.48242,0.35547 -1.14551,0.5332 -1.98925,0.5332 -0.35157,0 -0.71778,-0.0342 -1.09864,-0.10254 -0.38086,-0.0684 -0.78223,-0.1709 -1.2041,-0.30761 l 0,-1.11329 c 0.39844,0.20704 0.79101,0.36231 1.17774,0.46583 0.38671,0.10351 0.76952,0.15527 1.14843,0.15527 0.50781,0 0.89844,-0.0869 1.17188,-0.26074 0.27343,-0.17383 0.41015,-0.41895 0.41015,-0.73536 0,-0.29296 -0.0986,-0.51757 -0.29589,-0.67382 -0.19727,-0.15625 -0.62989,-0.30664 -1.29786,-0.45118 l -0.375,-0.0879 c -0.66797,-0.14062 -1.15039,-0.35644 -1.44726,-0.64746 -0.29688,-0.29101 -0.44532,-0.69042 -0.44531,-1.19824 -10e-6,-0.61718 0.21874,-1.09374 0.65625,-1.42969 0.43749,-0.33593 1.05859,-0.5039 1.86328,-0.5039 0.39843,0 0.77343,0.0293 1.125,0.0879 0.35155,0.0586 0.67577,0.14649 0.97265,0.26367 l 0,0 z m 2.07422,-0.19336 1.07813,0 0,6.5625 -1.07813,0 0,-6.5625 z m 0,-2.55469 1.07813,0 0,1.36524 -1.07813,0 0,-1.36524 z m 3.32813,0 1.07812,0 0,9.11719 -1.07812,0 0,-9.11719 z m 3.32812,2.55469 1.07813,0 0,6.5625 -1.07813,0 0,-6.5625 z m 0,-2.55469 1.07813,0 0,1.36524 -1.07813,0 0,-1.36524 z m 8.05078,2.80664 0,1.00782 c -0.30469,-0.16797 -0.61035,-0.29394 -0.91699,-0.37793 -0.30664,-0.084 -0.61621,-0.12597 -0.92871,-0.12598 -0.69922,10e-6 -1.24219,0.22169 -1.62891,0.66504 -0.38672,0.44336 -0.58008,1.06543 -0.58007,1.86621 -10e-6,0.80078 0.19335,1.42285 0.58007,1.86621 0.38672,0.44336 0.92969,0.66504 1.62891,0.66504 0.3125,0 0.62207,-0.042 0.92871,-0.12598 0.30664,-0.084 0.6123,-0.20996 0.91699,-0.37793 l 0,0.9961 c -0.30078,0.14062 -0.61231,0.24609 -0.93457,0.3164 -0.32227,0.0703 -0.66504,0.10547 -1.02832,0.10547 -0.98828,0 -1.77344,-0.31054 -2.35547,-0.93164 -0.58203,-0.62109 -0.87304,-1.45898 -0.87304,-2.51367 0,-1.07031 0.29394,-1.9121 0.88183,-2.52539 0.58789,-0.61327 1.39355,-0.91991 2.417,-0.91992 0.33202,10e-6 0.65624,0.0342 0.97265,0.10254 0.3164,0.0684 0.62304,0.1709 0.91992,0.30761 l 0,0 z m 4.42969,0.50391 c -0.57813,10e-6 -1.03516,0.22559 -1.37109,0.67676 -0.33594,0.45118 -0.50391,1.06934 -0.50391,1.85449 0,0.78516 0.16699,1.40332 0.50098,1.85449 0.33398,0.45118 0.79199,0.67676 1.37402,0.67676 0.57422,0 1.02929,-0.22656 1.36524,-0.67969 0.33593,-0.45312 0.5039,-1.07031 0.5039,-1.85156 0,-0.77734 -0.16797,-1.39355 -0.5039,-1.84863 -0.33595,-0.45507 -0.79102,-0.68261 -1.36524,-0.68262 l 0,0 z m 0,-0.91406 c 0.9375,10e-6 1.67382,0.30469 2.20899,0.91406 0.53514,0.60938 0.80272,1.45313 0.80273,2.53125 -1e-5,1.07422 -0.26759,1.91699 -0.80273,2.52832 -0.53517,0.61133 -1.27149,0.91699 -2.20899,0.91699 -0.94141,0 -1.67871,-0.30566 -2.21191,-0.91699 -0.53321,-0.61133 -0.79981,-1.4541 -0.79981,-2.52832 0,-1.07812 0.2666,-1.92187 0.79981,-2.53125 0.5332,-0.60937 1.2705,-0.91405 2.21191,-0.91406 l 0,0 z m 10.24805,2.75976 0,3.96094 -1.07813,0 0,-3.92578 c 0,-0.62109 -0.1211,-1.08593 -0.36328,-1.39453 -0.24219,-0.30859 -0.60547,-0.46289 -1.08984,-0.46289 -0.58204,0 -1.04102,0.18555 -1.37696,0.55664 -0.33594,0.3711 -0.5039,0.87696 -0.5039,1.51758 l 0,3.70898 -1.08399,0 0,-6.5625 1.08399,0 0,1.01953 c 0.25781,-0.39452 0.56152,-0.68944 0.91113,-0.88476 0.34961,-0.19531 0.75293,-0.29296 1.20996,-0.29297 0.7539,10e-6 1.32422,0.2334 1.71094,0.70019 0.38671,0.46681 0.58007,1.15333 0.58008,2.05957 l 0,0 z"
       id="flowRoot8155" />
    <path
       inkscape:connector-curvature="0"
       d="m 311.21964,333.74081 0,3.48047 -1.08399,0 0,-9.0586 1.08399,0 0,0.9961 c 0.22656,-0.39062 0.51269,-0.68066 0.85839,-0.87012 0.3457,-0.18945 0.75879,-0.28418 1.23925,-0.28418 0.79688,0 1.44434,0.31641 1.94239,0.94922 0.49804,0.63281 0.74706,1.46485 0.74707,2.49609 -10e-6,1.03125 -0.24903,1.86328 -0.74707,2.49609 -0.49806,0.63282 -1.14552,0.94922 -1.94239,0.94922 -0.48046,0 -0.89355,-0.0947 -1.23925,-0.28418 -0.3457,-0.18945 -0.63184,-0.47949 -0.85839,-0.87011 l 0,0 z m 3.66797,-2.29102 c -10e-6,-0.79296 -0.1631,-1.41503 -0.48926,-1.86621 -0.32618,-0.45117 -0.77442,-0.67675 -1.34473,-0.67676 -0.57031,1e-5 -1.01857,0.22559 -1.34472,0.67676 -0.32618,0.45118 -0.48926,1.07325 -0.48926,1.86621 0,0.79297 0.16308,1.41504 0.48926,1.86621 0.32615,0.45117 0.77441,0.67676 1.34472,0.67676 0.57031,0 1.01855,-0.22559 1.34473,-0.67676 0.32616,-0.45117 0.48925,-1.07324 0.48926,-1.86621 l 0,0 z m 2.36133,-0.49219 3.1582,0 0,0.96094 -3.1582,0 0,-0.96094 z m 5.94726,-4.6582 0,1.86328 2.2207,0 0,0.83789 -2.2207,0 0,3.5625 c 0,0.53516 0.0732,0.87891 0.21973,1.03125 0.14648,0.15235 0.44433,0.22852 0.89355,0.22852 l 1.10742,0 0,0.90234 -1.10742,0 c -0.83203,0 -1.40625,-0.15527 -1.72265,-0.46582 -0.31641,-0.31055 -0.47461,-0.87597 -0.47461,-1.69629 l 0,-3.5625 -0.79102,0 0,-0.83789 0.79102,0 0,-1.86328 1.08398,0 z m 6.375,9.03516 c -0.30469,0.78124 -0.60157,1.29101 -0.89062,1.52929 -0.28908,0.23828 -0.6758,0.35742 -1.16016,0.35743 l -0.86133,0 0,-0.90235 0.63281,0 c 0.29687,0 0.52735,-0.0703 0.69141,-0.21094 0.16406,-0.14062 0.34569,-0.47265 0.54491,-0.99609 l 0.19337,-0.49219 -2.65431,-6.45703 1.14259,0 2.05078,5.13281 2.05079,-5.13281 1.14257,0 -2.88281,7.17188 z m 5.41406,-1.59375 0,3.48047 -1.08398,0 0,-9.0586 1.08398,0 0,0.9961 c 0.22656,-0.39062 0.5127,-0.68066 0.8584,-0.87012 0.3457,-0.18945 0.75879,-0.28418 1.23926,-0.28418 0.79687,0 1.44433,0.31641 1.94237,0.94922 0.49804,0.63281 0.74707,1.46485 0.74707,2.49609 0,1.03125 -0.24903,1.86328 -0.74707,2.49609 -0.49805,0.63282 -1.14551,0.94922 -1.94238,0.94922 -0.48047,0 -0.89356,-0.0947 -1.23926,-0.28418 -0.3457,-0.18945 -0.63184,-0.47949 -0.8584,-0.87011 l 0,0 z m 3.66797,-2.29102 c 0,-0.79296 -0.1631,-1.41503 -0.48926,-1.86621 -0.32617,-0.45117 -0.77441,-0.67675 -1.34472,-0.67676 -0.57032,1e-5 -1.01856,0.22559 -1.34473,0.67676 -0.32617,0.45118 -0.48926,1.07325 -0.48926,1.86621 0,0.79297 0.16309,1.41504 0.48926,1.86621 0.32617,0.45117 0.77441,0.67676 1.34473,0.67676 0.57031,0 1.01855,-0.22559 1.34472,-0.67676 0.32616,-0.45117 0.48926,-1.07324 0.48926,-1.86621 l 0,0 z m 8.51953,-0.27539 0,0.52734 -4.95703,0 c 0.0469,0.74219 0.27051,1.30762 0.67089,1.69629 0.40039,0.38868 0.958,0.58301 1.67286,0.58301 0.41406,0 0.81542,-0.0508 1.2041,-0.15234 0.38867,-0.10156 0.77441,-0.25391 1.15723,-0.45703 l 0,1.01953 c -0.38672,0.16406 -0.78321,0.28906 -1.18945,0.375 -0.40626,0.0859 -0.81837,0.1289 -1.23633,0.1289 -1.04688,0 -1.87598,-0.30468 -2.48731,-0.91406 -0.61134,-0.60937 -0.91699,-1.43359 -0.91699,-2.47266 0,-1.07421 0.29004,-1.92675 0.87012,-2.55761 0.58008,-0.63086 1.3623,-0.94629 2.34668,-0.94629 0.88281,0 1.58105,0.28418 2.09473,0.85254 0.51365,0.56836 0.7705,1.34082 0.7705,2.31738 l 0,0 z m -1.07813,-0.31641 c -0.008,-0.58984 -0.17286,-1.06054 -0.49511,-1.41211 -0.32227,-0.35155 -0.74903,-0.52733 -1.28027,-0.52734 -0.60158,10e-6 -1.08301,0.16993 -1.44435,0.50977 -0.36133,0.33985 -0.56934,0.81836 -0.62402,1.43554 l 3.84375,-0.006 z m -31.73437,12.49805 0,1.01953 c -0.30469,-0.15624 -0.6211,-0.27343 -0.94922,-0.35156 -0.32812,-0.0781 -0.66797,-0.11718 -1.01953,-0.11719 -0.53516,1e-5 -0.93652,0.082 -1.2041,0.2461 -0.26758,0.16406 -0.40138,0.41016 -0.40138,0.73828 0,0.25 0.0957,0.44629 0.28712,0.58886 0.19141,0.14259 0.57617,0.27833 1.1543,0.40723 l 0.36914,0.082 c 0.76562,0.16407 1.30957,0.39551 1.63184,0.69434 0.32226,0.29883 0.48339,0.71582 0.4834,1.25097 -1e-5,0.60938 -0.24122,1.0918 -0.72364,1.44727 -0.48242,0.35547 -1.14551,0.5332 -1.98925,0.5332 -0.35157,0 -0.71778,-0.0342 -1.09864,-0.10254 -0.38086,-0.0684 -0.78223,-0.1709 -1.2041,-0.30761 l 0,-1.11329 c 0.39844,0.20704 0.79101,0.36231 1.17774,0.46583 0.38671,0.10351 0.76952,0.15527 1.14843,0.15527 0.50781,0 0.89844,-0.0869 1.17187,-0.26074 0.27343,-0.17383 0.41015,-0.41895 0.41015,-0.73536 0,-0.29296 -0.0986,-0.51757 -0.29589,-0.67382 -0.19727,-0.15625 -0.62988,-0.30664 -1.29786,-0.45118 l -0.375,-0.0879 c -0.66797,-0.14062 -1.15039,-0.35644 -1.44725,-0.64746 -0.29688,-0.29101 -0.44532,-0.69042 -0.44531,-1.19824 -1e-5,-0.61718 0.21874,-1.09374 0.65624,-1.42969 0.43749,-0.33593 1.05859,-0.5039 1.86328,-0.5039 0.39843,0 0.77343,0.0293 1.125,0.0879 0.35155,0.0586 0.67577,0.14649 0.97265,0.26367 l 0,0 z m 2.07422,-0.19336 1.07813,0 0,6.5625 -1.07813,0 0,-6.5625 z m 0,-2.55469 1.07813,0 0,1.36524 -1.07813,0 0,-1.36524 z m 3.32813,0 1.07812,0 0,9.11719 -1.07812,0 0,-9.11719 z m 3.32812,2.55469 1.07813,0 0,6.5625 -1.07813,0 0,-6.5625 z m 0,-2.55469 1.07813,0 0,1.36524 -1.07813,0 0,-1.36524 z m 8.05078,2.80664 0,1.00782 c -0.30469,-0.16797 -0.61035,-0.29394 -0.91699,-0.37793 -0.30664,-0.084 -0.61621,-0.12597 -0.92871,-0.12598 -0.69922,10e-6 -1.24219,0.22169 -1.62891,0.66504 -0.38672,0.44336 -0.58008,1.06543 -0.58007,1.86621 -1e-5,0.80078 0.19335,1.42285 0.58007,1.86621 0.38672,0.44336 0.92969,0.66504 1.62891,0.66504 0.3125,0 0.62207,-0.042 0.92871,-0.12598 0.30664,-0.084 0.6123,-0.20996 0.91699,-0.37793 l 0,0.9961 c -0.30078,0.14062 -0.61231,0.24609 -0.93457,0.3164 -0.32227,0.0703 -0.66504,0.10547 -1.02832,0.10547 -0.98828,0 -1.77344,-0.31054 -2.35547,-0.93164 -0.58203,-0.62109 -0.87304,-1.45898 -0.87304,-2.51367 0,-1.07031 0.29393,-1.9121 0.88183,-2.52539 0.58789,-0.61327 1.39355,-0.91991 2.417,-0.91992 0.33202,10e-6 0.65624,0.0342 0.97265,0.10254 0.31639,0.0684 0.62304,0.1709 0.91991,0.30761 l 0,0 z m 4.42969,0.50391 c -0.57813,10e-6 -1.03516,0.22559 -1.37109,0.67676 -0.33594,0.45118 -0.50391,1.06934 -0.50391,1.85449 0,0.78516 0.16699,1.40332 0.50098,1.85449 0.33398,0.45118 0.79199,0.67676 1.37402,0.67676 0.57422,0 1.02929,-0.22656 1.36524,-0.67969 0.33593,-0.45312 0.5039,-1.07031 0.5039,-1.85156 0,-0.77734 -0.16797,-1.39355 -0.5039,-1.84863 -0.33595,-0.45507 -0.79102,-0.68261 -1.36524,-0.68262 l 0,0 z m 0,-0.91406 c 0.9375,10e-6 1.67382,0.30469 2.20899,0.91406 0.53514,0.60938 0.80271,1.45313 0.80272,2.53125 -1e-5,1.07422 -0.26758,1.91699 -0.80272,2.52832 -0.53517,0.61133 -1.27149,0.91699 -2.20899,0.91699 -0.94141,0 -1.67871,-0.30566 -2.21191,-0.91699 -0.53321,-0.61133 -0.79981,-1.4541 -0.79981,-2.52832 0,-1.07812 0.2666,-1.92187 0.79981,-2.53125 0.5332,-0.60937 1.2705,-0.91405 2.21191,-0.91406 l 0,0 z m 10.24805,2.75976 0,3.96094 -1.07813,0 0,-3.92578 c 0,-0.62109 -0.1211,-1.08593 -0.36328,-1.39453 -0.24219,-0.30859 -0.60547,-0.46289 -1.08984,-0.46289 -0.58204,0 -1.04102,0.18555 -1.37696,0.55664 -0.33594,0.3711 -0.5039,0.87696 -0.5039,1.51758 l 0,3.70898 -1.08399,0 0,-6.5625 1.08399,0 0,1.01953 c 0.25781,-0.39452 0.56152,-0.68944 0.91113,-0.88476 0.34961,-0.19531 0.75293,-0.29296 1.20996,-0.29297 0.75389,10e-6 1.32422,0.2334 1.71093,0.70019 0.38671,0.46681 0.58008,1.15333 0.58009,2.05957 l 0,0 z"
       id="flowRoot8165" />
    <path
       inkscape:connector-curvature="0"
       d="m 214.35246,348.56511 -1.60547,4.35351 3.2168,0 -1.61133,-4.35351 z m -0.66797,-1.16602 1.3418,0 3.33399,8.74805 -1.23047,0 -0.79688,-2.24414 -3.94336,0 -0.79687,2.24414 -1.24805,0 3.33984,-8.74805 z m 11.35547,4.78711 0,3.96094 -1.07812,0 0,-3.92578 c -1e-5,-0.62109 -0.1211,-1.08594 -0.36328,-1.39454 -0.2422,-0.30858 -0.60548,-0.46288 -1.08985,-0.46289 -0.58203,1e-5 -1.04102,0.18556 -1.37695,0.55664 -0.33594,0.3711 -0.50391,0.87696 -0.50391,1.51758 l 0,3.70899 -1.08398,0 0,-6.5625 1.08398,0 0,1.01953 c 0.25781,-0.39453 0.56152,-0.68945 0.91114,-0.88477 0.3496,-0.1953 0.75292,-0.29296 1.20996,-0.29297 0.7539,1e-5 1.32421,0.23341 1.71093,0.7002 0.38672,0.4668 0.58008,1.15332 0.58008,2.05957 l 0,0 z m 4.70508,-1.8457 c -0.57813,0 -1.03516,0.22559 -1.37109,0.67675 -0.33594,0.45118 -0.50391,1.06934 -0.50391,1.8545 0,0.78516 0.16699,1.40332 0.50098,1.85449 0.33398,0.45117 0.79199,0.67676 1.37402,0.67676 0.57422,0 1.02929,-0.22656 1.36524,-0.67969 0.33593,-0.45312 0.5039,-1.07031 0.5039,-1.85156 0,-0.77734 -0.16797,-1.39355 -0.5039,-1.84864 -0.33595,-0.45507 -0.79102,-0.68261 -1.36524,-0.68261 l 0,0 z m 0,-0.91407 c 0.9375,1e-5 1.67382,0.3047 2.20899,0.91407 0.53515,0.60938 0.80272,1.45313 0.80273,2.53125 -1e-5,1.07422 -0.26758,1.91699 -0.80273,2.52832 -0.53517,0.61133 -1.27149,0.91699 -2.20899,0.91699 -0.94141,0 -1.67871,-0.30566 -2.21191,-0.91699 -0.53321,-0.61133 -0.79981,-1.4541 -0.79981,-2.52832 0,-1.07812 0.2666,-1.92187 0.79981,-2.53125 0.5332,-0.60937 1.2705,-0.91406 2.21191,-0.91407 l 0,0 z m 9.11133,1.1543 0,-3.55078 1.07812,0 0,9.11719 -1.07812,0 0,-0.98438 c -0.22657,0.39063 -0.5127,0.68067 -0.8584,0.87012 -0.34571,0.18945 -0.76075,0.28418 -1.24512,0.28418 -0.79297,0 -1.43847,-0.31641 -1.93652,-0.94922 -0.49805,-0.63281 -0.74707,-1.46484 -0.74707,-2.49609 0,-1.03125 0.24902,-1.86328 0.74707,-2.4961 0.49805,-0.6328 1.14355,-0.94921 1.93652,-0.94922 0.48437,1e-5 0.89941,0.0947 1.24512,0.28418 0.3457,0.18946 0.63183,0.4795 0.8584,0.87012 l 0,0 z m -3.67383,2.29102 c 0,0.79297 0.16309,1.41504 0.48926,1.86621 0.32617,0.45117 0.77441,0.67676 1.34473,0.67676 0.5703,0 1.01952,-0.22559 1.34765,-0.67676 0.32812,-0.45117 0.49218,-1.07324 0.49219,-1.86621 -1e-5,-0.79297 -0.16407,-1.41504 -0.49219,-1.86621 -0.32813,-0.45117 -0.77735,-0.67676 -1.34765,-0.67676 -0.57032,0 -1.01856,0.22559 -1.34473,0.67676 -0.32617,0.45117 -0.48926,1.07324 -0.48926,1.86621 l 0,0 z m 12.58594,-0.27539 0,0.52734 -4.95703,0 c 0.0469,0.74219 0.2705,1.30762 0.6709,1.69629 0.40038,0.38867 0.958,0.58301 1.67285,0.58301 0.41406,0 0.81542,-0.0508 1.2041,-0.15235 0.38867,-0.10156 0.77441,-0.2539 1.15723,-0.45703 l 0,1.01953 c -0.38673,0.16407 -0.78321,0.28907 -1.18946,0.375 -0.40625,0.0859 -0.81836,0.12891 -1.23633,0.12891 -1.04687,0 -1.87597,-0.30469 -2.4873,-0.91406 -0.61133,-0.60938 -0.91699,-1.43359 -0.91699,-2.47266 0,-1.07421 0.29004,-1.92675 0.87011,-2.55762 0.58008,-0.63085 1.36231,-0.94628 2.34668,-0.94629 0.88281,1e-5 1.58105,0.28419 2.09473,0.85254 0.51367,0.56837 0.7705,1.34083 0.77051,2.31739 l 0,0 z m -1.07813,-0.31641 c -0.008,-0.58984 -0.17285,-1.06054 -0.49511,-1.41211 -0.32227,-0.35156 -0.74903,-0.52734 -1.28028,-0.52734 -0.60156,0 -1.08301,0.16992 -1.44433,0.50976 -0.36133,0.33985 -0.56934,0.81837 -0.62403,1.43555 l 3.84375,-0.006 z"
       id="flowRoot8175" />
    <path
       inkscape:connector-curvature="0"
       d="m 496.17991,348.07292 0,1.24805 c -0.39845,-0.37109 -0.82325,-0.64843 -1.27442,-0.83204 -0.45118,-0.18358 -0.93067,-0.27538 -1.43847,-0.27539 -1.00001,10e-6 -1.76563,0.30568 -2.29688,0.917 -0.53125,0.61133 -0.79688,1.49512 -0.79687,2.65136 -10e-6,1.15235 0.26562,2.03419 0.79687,2.64551 0.53125,0.61133 1.29687,0.91699 2.29688,0.91699 0.5078,0 0.98729,-0.0918 1.43847,-0.27539 0.45117,-0.18359 0.87597,-0.46093 1.27442,-0.83203 l 0,1.23633 c -0.41407,0.28125 -0.85255,0.49219 -1.31543,0.63281 -0.4629,0.14063 -0.95216,0.21094 -1.46778,0.21094 -1.32422,0 -2.36719,-0.40527 -3.1289,-1.21582 -0.76172,-0.81055 -1.14258,-1.91699 -1.14258,-3.31934 0,-1.40624 0.38086,-2.51464 1.14258,-3.32519 0.76171,-0.81054 1.80468,-1.21581 3.1289,-1.21582 0.52343,1e-5 1.0166,0.0693 1.47949,0.20801 0.46289,0.13868 0.89746,0.34668 1.30372,0.62402 l 0,0 z m 4.77539,4.77539 c -0.8711,0 -1.47462,0.0996 -1.81055,0.29883 -0.33594,0.19922 -0.50391,0.53906 -0.50391,1.01953 0,0.38281 0.12598,0.68652 0.37793,0.91113 0.25195,0.22461 0.59473,0.33692 1.02832,0.33692 0.59766,0 1.07715,-0.21192 1.43848,-0.63575 0.36132,-0.42382 0.54199,-0.9873 0.54199,-1.69043 l 0,-0.24023 -1.07226,0 z m 2.15039,-0.44531 0,3.74414 -1.07813,0 0,-0.9961 c -0.2461,0.39844 -0.55274,0.69239 -0.91992,0.88184 -0.36719,0.18945 -0.81641,0.28418 -1.34766,0.28418 -0.67187,0 -1.20605,-0.18848 -1.60254,-0.56543 -0.39648,-0.37695 -0.59472,-0.88184 -0.59472,-1.51465 0,-0.73828 0.24707,-1.29492 0.74121,-1.66992 0.49414,-0.375 1.23144,-0.5625 2.21191,-0.5625 l 1.51172,0 0,-0.10547 c 0,-0.49609 -0.16309,-0.87988 -0.48926,-1.15137 -0.32617,-0.27148 -0.78418,-0.40722 -1.37402,-0.40722 -0.375,0 -0.74024,0.0449 -1.0957,0.13476 -0.35547,0.0899 -0.69727,0.22462 -1.02539,0.4043 l 0,-0.99609 c 0.39453,-0.15234 0.77734,-0.2666 1.14843,-0.34278 0.3711,-0.0762 0.73242,-0.11425 1.08399,-0.11426 0.94921,1e-5 1.6582,0.2461 2.12695,0.73829 0.46875,0.49219 0.70312,1.23828 0.70313,2.23828 l 0,0 z m 3.29297,-4.68164 0,1.86328 2.2207,0 0,0.83789 -2.2207,0 0,3.5625 c -1e-5,0.53516 0.0732,0.87891 0.21972,1.03125 0.14648,0.15234 0.44434,0.22851 0.89356,0.22851 l 1.10742,0 0,0.90235 -1.10742,0 c -0.83204,0 -1.40626,-0.15528 -1.72266,-0.46582 -0.31641,-0.31055 -0.47461,-0.87598 -0.47461,-1.69629 l 0,-3.5625 -0.79101,0 0,-0.83789 0.79101,0 0,-1.86328 1.08399,0 z m 9.09961,4.46484 0,3.96094 -1.07813,0 0,-3.92578 c -10e-6,-0.62109 -0.1211,-1.08594 -0.36328,-1.39454 -0.24219,-0.30858 -0.60547,-0.46288 -1.08984,-0.46289 -0.58204,1e-5 -1.04102,0.18556 -1.37696,0.55664 -0.33594,0.3711 -0.50391,0.87696 -0.5039,1.51758 l 0,3.70899 -1.08399,0 0,-9.11719 1.08399,0 0,3.57422 c 0.25781,-0.39453 0.56152,-0.68945 0.91113,-0.88477 0.3496,-0.1953 0.75292,-0.29296 1.20996,-0.29297 0.7539,1e-5 1.32421,0.23341 1.71094,0.7002 0.38671,0.4668 0.58007,1.15332 0.58008,2.05957 l 0,0 z m 4.70507,-1.8457 c -0.57812,0 -1.03516,0.22559 -1.37109,0.67675 -0.33594,0.45118 -0.50391,1.06934 -0.50391,1.8545 0,0.78516 0.16699,1.40332 0.50098,1.85449 0.33398,0.45117 0.79199,0.67676 1.37402,0.67676 0.57422,0 1.0293,-0.22656 1.36524,-0.67969 0.33593,-0.45312 0.5039,-1.07031 0.5039,-1.85156 0,-0.77734 -0.16797,-1.39355 -0.5039,-1.84864 -0.33594,-0.45507 -0.79102,-0.68261 -1.36524,-0.68261 l 0,0 z m 0,-0.91407 c 0.9375,1e-5 1.67383,0.3047 2.20899,0.91407 0.53515,0.60938 0.80273,1.45313 0.80273,2.53125 0,1.07422 -0.26758,1.91699 -0.80273,2.52832 -0.53516,0.61133 -1.27149,0.91699 -2.20899,0.91699 -0.94141,0 -1.67871,-0.30566 -2.21191,-0.91699 -0.5332,-0.61133 -0.79981,-1.4541 -0.79981,-2.52832 0,-1.07812 0.26661,-1.92187 0.79981,-2.53125 0.5332,-0.60937 1.2705,-0.91406 2.21191,-0.91407 l 0,0 z m 9.11133,1.1543 0,-3.55078 1.07813,0 0,9.11719 -1.07813,0 0,-0.98438 c -0.22657,0.39063 -0.5127,0.68067 -0.8584,0.87012 -0.3457,0.18945 -0.76074,0.28418 -1.24511,0.28418 -0.79298,0 -1.43848,-0.31641 -1.93653,-0.94922 -0.49805,-0.63281 -0.74707,-1.46484 -0.74707,-2.49609 0,-1.03125 0.24902,-1.86328 0.74707,-2.4961 0.49805,-0.6328 1.14355,-0.94921 1.93653,-0.94922 0.48437,1e-5 0.89941,0.0947 1.24511,0.28418 0.3457,0.18946 0.63183,0.4795 0.8584,0.87012 l 0,0 z m -3.67383,2.29102 c 0,0.79297 0.16309,1.41504 0.48926,1.86621 0.32617,0.45117 0.77441,0.67676 1.34473,0.67676 0.57031,0 1.01952,-0.22559 1.34765,-0.67676 0.32812,-0.45117 0.49219,-1.07324 0.49219,-1.86621 0,-0.79297 -0.16407,-1.41504 -0.49219,-1.86621 -0.32813,-0.45117 -0.77734,-0.67676 -1.34765,-0.67676 -0.57032,0 -1.01856,0.22559 -1.34473,0.67676 -0.32617,0.45117 -0.48926,1.07324 -0.48926,1.86621 l 0,0 z m 12.58594,-0.27539 0,0.52734 -4.95703,0 c 0.0469,0.74219 0.27051,1.30762 0.6709,1.69629 0.40039,0.38867 0.958,0.58301 1.67285,0.58301 0.41406,0 0.81542,-0.0508 1.2041,-0.15235 0.38867,-0.10156 0.77441,-0.2539 1.15723,-0.45703 l 0,1.01953 c -0.38673,0.16407 -0.78321,0.28907 -1.18946,0.375 -0.40625,0.0859 -0.81836,0.12891 -1.23632,0.12891 -1.04688,0 -1.87598,-0.30469 -2.48731,-0.91406 -0.61133,-0.60938 -0.91699,-1.43359 -0.91699,-2.47266 0,-1.07421 0.29004,-1.92675 0.87012,-2.55762 0.58007,-0.63085 1.3623,-0.94628 2.34668,-0.94629 0.8828,1e-5 1.58105,0.28419 2.09472,0.85254 0.51367,0.56837 0.7705,1.34083 0.77051,2.31739 l 0,0 z m -1.07812,-0.31641 c -0.008,-0.58984 -0.17286,-1.06054 -0.49512,-1.41211 -0.32227,-0.35156 -0.74903,-0.52734 -1.28027,-0.52734 -0.60157,0 -1.08302,0.16992 -1.44434,0.50976 -0.36133,0.33985 -0.56934,0.81837 -0.62402,1.43555 l 3.84375,-0.006 z"
       id="flowRoot8183" />
    <path
       style="fill:none;stroke:#000000;stroke-width:1px;stroke-linecap:butt;stroke-linejoin:miter;stroke-opacity:1"
       d="m 336.50906,374.56812 0,41.42857 34.60096,-19.97687 z"
       id="path3118"
       inkscape:connector-curvature="0" />
    <path
       style="fill:none;stroke:#000000;stroke-width:1px;stroke-linecap:butt;stroke-linejoin:miter;stroke-opacity:1"
       d="m 370.2209,377.58028 0,38.89088"
       id="path3122"
       inkscape:connector-curvature="0" />
    <path
       inkscape:connector-curvature="0"
       d="m 282.77973,397.58225 a 3.1803188,3.1803188 0 1 1 0.052,-0.0273"
       style="fill:#ffffff;fill-opacity:0;stroke:#000000;stroke-width:2.10800004;stroke-linecap:square;stroke-linejoin:miter;stroke-miterlimit:4;stroke-opacity:1;stroke-dasharray:none;stroke-dashoffset:5.12000008"
       id="path1928-4" />
    <path
       inkscape:connector-curvature="0"
       d="m 283.39309,394.75287 52.43731,0"
       style="fill:none;stroke:#000000;stroke-width:2;stroke-linecap:butt;stroke-linejoin:miter;stroke-miterlimit:4;stroke-opacity:1;stroke-dasharray:none"
       id="path2817-0" />
    <path
       inkscape:connector-curvature="0"
       d="m 423.2086,395.25795 -52.43732,0"
       style="fill:none;stroke:#000000;stroke-width:2;stroke-linecap:butt;stroke-linejoin:miter;stroke-miterlimit:4;stroke-opacity:1;stroke-dasharray:none"
       id="path4591-9" />
    <path
       inkscape:connector-curvature="0"
       d="m 425.84227,398.08733 a 3.1803188,3.1803188 0 1 0 -0.052,-0.0273"
       style="fill:#ffffff;fill-opacity:0;stroke:#000000;stroke-width:2.10800004;stroke-linecap:square;stroke-linejoin:miter;stroke-miterlimit:4;stroke-opacity:1;stroke-dasharray:none;stroke-dashoffset:5.12000008"
       id="path4589-4" />
    <path
       inkscape:connector-curvature="0"
       d="m 260.05738,403.26123 -1.60547,4.35351 3.2168,0 -1.61133,-4.35351 z m -0.66797,-1.16602 1.3418,0 3.33399,8.74805 -1.23047,0 -0.79688,-2.24414 -3.94336,0 -0.79687,2.24414 -1.24805,0 3.33984,-8.74805 z m 11.35547,4.78711 0,3.96094 -1.07812,0 0,-3.92578 c -1e-5,-0.62109 -0.1211,-1.08594 -0.36328,-1.39454 -0.2422,-0.30858 -0.60548,-0.46288 -1.08985,-0.46289 -0.58203,1e-5 -1.04102,0.18556 -1.37695,0.55664 -0.33594,0.3711 -0.50391,0.87696 -0.50391,1.51758 l 0,3.70899 -1.08398,0 0,-6.5625 1.08398,0 0,1.01953 c 0.25781,-0.39453 0.56152,-0.68945 0.91114,-0.88477 0.3496,-0.1953 0.75292,-0.29296 1.20996,-0.29297 0.7539,1e-5 1.32421,0.23341 1.71093,0.7002 0.38672,0.4668 0.58008,1.15332 0.58008,2.05957 l 0,0 z m 4.70508,-1.8457 c -0.57813,0 -1.03516,0.22559 -1.37109,0.67675 -0.33594,0.45118 -0.50391,1.06934 -0.50391,1.8545 0,0.78516 0.16699,1.40332 0.50098,1.85449 0.33398,0.45117 0.79199,0.67676 1.37402,0.67676 0.57422,0 1.02929,-0.22656 1.36524,-0.67969 0.33593,-0.45312 0.5039,-1.07031 0.5039,-1.85156 0,-0.77734 -0.16797,-1.39355 -0.5039,-1.84864 -0.33595,-0.45507 -0.79102,-0.68261 -1.36524,-0.68261 l 0,0 z m 0,-0.91407 c 0.9375,1e-5 1.67382,0.3047 2.20899,0.91407 0.53515,0.60938 0.80272,1.45313 0.80273,2.53125 -10e-6,1.07422 -0.26758,1.91699 -0.80273,2.52832 -0.53517,0.61133 -1.27149,0.91699 -2.20899,0.91699 -0.94141,0 -1.67871,-0.30566 -2.21191,-0.91699 -0.53321,-0.61133 -0.79981,-1.4541 -0.79981,-2.52832 0,-1.07812 0.2666,-1.92187 0.79981,-2.53125 0.5332,-0.60937 1.2705,-0.91406 2.21191,-0.91407 l 0,0 z m 9.11133,1.1543 0,-3.55078 1.07812,0 0,9.11719 -1.07812,0 0,-0.98438 c -0.22657,0.39063 -0.5127,0.68067 -0.8584,0.87012 -0.34571,0.18945 -0.76075,0.28418 -1.24512,0.28418 -0.79297,0 -1.43847,-0.31641 -1.93652,-0.94922 -0.49805,-0.63281 -0.74707,-1.46484 -0.74707,-2.49609 0,-1.03125 0.24902,-1.86328 0.74707,-2.4961 0.49805,-0.6328 1.14355,-0.94921 1.93652,-0.94922 0.48437,1e-5 0.89941,0.0947 1.24512,0.28418 0.3457,0.18946 0.63183,0.4795 0.8584,0.87012 l 0,0 z m -3.67383,2.29102 c 0,0.79297 0.16309,1.41504 0.48926,1.86621 0.32617,0.45117 0.77441,0.67676 1.34473,0.67676 0.5703,0 1.01952,-0.22559 1.34765,-0.67676 0.32812,-0.45117 0.49218,-1.07324 0.49219,-1.86621 -10e-6,-0.79297 -0.16407,-1.41504 -0.49219,-1.86621 -0.32813,-0.45117 -0.77735,-0.67676 -1.34765,-0.67676 -0.57032,0 -1.01856,0.22559 -1.34473,0.67676 -0.32617,0.45117 -0.48926,1.07324 -0.48926,1.86621 l 0,0 z m 12.58594,-0.27539 0,0.52734 -4.95703,0 c 0.0469,0.74219 0.2705,1.30762 0.6709,1.69629 0.40038,0.38867 0.958,0.58301 1.67285,0.58301 0.41406,0 0.81542,-0.0508 1.2041,-0.15235 0.38867,-0.10156 0.77441,-0.2539 1.15723,-0.45703 l 0,1.01953 c -0.38673,0.16407 -0.78321,0.28907 -1.18946,0.375 -0.40625,0.0859 -0.81836,0.12891 -1.23633,0.12891 -1.04687,0 -1.87597,-0.30469 -2.4873,-0.91406 -0.61133,-0.60938 -0.91699,-1.43359 -0.91699,-2.47266 0,-1.07421 0.29004,-1.92675 0.87011,-2.55762 0.58008,-0.63085 1.36231,-0.94628 2.34668,-0.94629 0.88281,1e-5 1.58105,0.28419 2.09473,0.85254 0.51367,0.56837 0.7705,1.34083 0.77051,2.31739 l 0,0 z m -1.07813,-0.31641 c -0.008,-0.58984 -0.17285,-1.06054 -0.49511,-1.41211 -0.32227,-0.35156 -0.74903,-0.52734 -1.28028,-0.52734 -0.60156,0 -1.08301,0.16992 -1.44433,0.50976 -0.36133,0.33985 -0.56934,0.81837 -0.62403,1.43555 l 3.84375,-0.006 z"
       id="flowRoot8175-8" />
    <path
       inkscape:connector-curvature="0"
       d="m 416.86949,404.28428 0,1.24805 c -0.39845,-0.37109 -0.82325,-0.64843 -1.27442,-0.83204 -0.45118,-0.18358 -0.93067,-0.27538 -1.43847,-0.27539 -1.00001,1e-5 -1.76563,0.30568 -2.29688,0.917 -0.53125,0.61133 -0.79688,1.49512 -0.79687,2.65136 -1e-5,1.15235 0.26562,2.03419 0.79687,2.64551 0.53125,0.61133 1.29687,0.91699 2.29688,0.91699 0.5078,0 0.98729,-0.0918 1.43847,-0.27539 0.45117,-0.18359 0.87597,-0.46093 1.27442,-0.83203 l 0,1.23633 c -0.41407,0.28125 -0.85255,0.49219 -1.31543,0.63281 -0.4629,0.14063 -0.95216,0.21094 -1.46778,0.21094 -1.32422,0 -2.36719,-0.40527 -3.1289,-1.21582 -0.76172,-0.81055 -1.14258,-1.91699 -1.14258,-3.31934 0,-1.40624 0.38086,-2.51464 1.14258,-3.32519 0.76171,-0.81054 1.80468,-1.21581 3.1289,-1.21582 0.52343,1e-5 1.0166,0.0693 1.47949,0.20801 0.46289,0.13868 0.89746,0.34668 1.30372,0.62402 l 0,0 z m 4.77539,4.77539 c -0.8711,0 -1.47462,0.0996 -1.81055,0.29883 -0.33594,0.19922 -0.50391,0.53906 -0.50391,1.01953 0,0.38281 0.12598,0.68652 0.37793,0.91113 0.25195,0.22461 0.59473,0.33692 1.02832,0.33692 0.59766,0 1.07715,-0.21192 1.43848,-0.63575 0.36132,-0.42382 0.54199,-0.9873 0.54199,-1.69043 l 0,-0.24023 -1.07226,0 z m 2.15039,-0.44531 0,3.74414 -1.07813,0 0,-0.9961 c -0.2461,0.39844 -0.55274,0.69239 -0.91992,0.88184 -0.36719,0.18945 -0.81641,0.28418 -1.34766,0.28418 -0.67187,0 -1.20605,-0.18848 -1.60254,-0.56543 -0.39648,-0.37695 -0.59472,-0.88184 -0.59472,-1.51465 0,-0.73828 0.24707,-1.29492 0.74121,-1.66992 0.49414,-0.375 1.23144,-0.5625 2.21191,-0.5625 l 1.51172,0 0,-0.10547 c 0,-0.49609 -0.16309,-0.87988 -0.48926,-1.15137 -0.32617,-0.27148 -0.78418,-0.40722 -1.37402,-0.40722 -0.375,0 -0.74024,0.0449 -1.0957,0.13476 -0.35547,0.0899 -0.69727,0.22462 -1.02539,0.4043 l 0,-0.99609 c 0.39453,-0.15234 0.77734,-0.2666 1.14843,-0.34278 0.3711,-0.0762 0.73242,-0.11425 1.08399,-0.11426 0.94921,1e-5 1.6582,0.2461 2.12695,0.73829 0.46875,0.49219 0.70312,1.23828 0.70313,2.23828 l 0,0 z m 3.29297,-4.68164 0,1.86328 2.2207,0 0,0.83789 -2.2207,0 0,3.5625 c -10e-6,0.53516 0.0732,0.87891 0.21972,1.03125 0.14648,0.15234 0.44434,0.22851 0.89356,0.22851 l 1.10742,0 0,0.90235 -1.10742,0 c -0.83204,0 -1.40626,-0.15528 -1.72266,-0.46582 -0.31641,-0.31055 -0.47461,-0.87598 -0.47461,-1.69629 l 0,-3.5625 -0.79101,0 0,-0.83789 0.79101,0 0,-1.86328 1.08399,0 z m 9.09961,4.46484 0,3.96094 -1.07813,0 0,-3.92578 c -10e-6,-0.62109 -0.1211,-1.08594 -0.36328,-1.39454 -0.24219,-0.30858 -0.60547,-0.46288 -1.08984,-0.46289 -0.58204,1e-5 -1.04102,0.18556 -1.37696,0.55664 -0.33594,0.3711 -0.50391,0.87696 -0.5039,1.51758 l 0,3.70899 -1.08399,0 0,-9.11719 1.08399,0 0,3.57422 c 0.25781,-0.39453 0.56152,-0.68945 0.91113,-0.88477 0.3496,-0.1953 0.75292,-0.29296 1.20996,-0.29297 0.7539,1e-5 1.32421,0.23341 1.71094,0.7002 0.38671,0.4668 0.58007,1.15332 0.58008,2.05957 l 0,0 z m 4.70507,-1.8457 c -0.57812,0 -1.03516,0.22559 -1.37109,0.67675 -0.33594,0.45118 -0.50391,1.06934 -0.50391,1.8545 0,0.78516 0.16699,1.40332 0.50098,1.85449 0.33398,0.45117 0.79199,0.67676 1.37402,0.67676 0.57422,0 1.0293,-0.22656 1.36524,-0.67969 0.33593,-0.45312 0.5039,-1.07031 0.5039,-1.85156 0,-0.77734 -0.16797,-1.39355 -0.5039,-1.84864 -0.33594,-0.45507 -0.79102,-0.68261 -1.36524,-0.68261 l 0,0 z m 0,-0.91407 c 0.9375,1e-5 1.67383,0.3047 2.20899,0.91407 0.53515,0.60938 0.80273,1.45313 0.80273,2.53125 0,1.07422 -0.26758,1.91699 -0.80273,2.52832 -0.53516,0.61133 -1.27149,0.91699 -2.20899,0.91699 -0.94141,0 -1.67871,-0.30566 -2.21191,-0.91699 -0.5332,-0.61133 -0.79981,-1.4541 -0.79981,-2.52832 0,-1.07812 0.26661,-1.92187 0.79981,-2.53125 0.5332,-0.60937 1.2705,-0.91406 2.21191,-0.91407 l 0,0 z m 9.11133,1.1543 0,-3.55078 1.07813,0 0,9.11719 -1.07813,0 0,-0.98438 c -0.22657,0.39063 -0.5127,0.68067 -0.8584,0.87012 -0.3457,0.18945 -0.76074,0.28418 -1.24511,0.28418 -0.79298,0 -1.43848,-0.31641 -1.93653,-0.94922 -0.49805,-0.63281 -0.74707,-1.46484 -0.74707,-2.49609 0,-1.03125 0.24902,-1.86328 0.74707,-2.4961 0.49805,-0.6328 1.14355,-0.94921 1.93653,-0.94922 0.48437,1e-5 0.89941,0.0947 1.24511,0.28418 0.3457,0.18946 0.63183,0.4795 0.8584,0.87012 l 0,0 z m -3.67383,2.29102 c 0,0.79297 0.16309,1.41504 0.48926,1.86621 0.32617,0.45117 0.77441,0.67676 1.34473,0.67676 0.57031,0 1.01952,-0.22559 1.34765,-0.67676 0.32812,-0.45117 0.49219,-1.07324 0.49219,-1.86621 0,-0.79297 -0.16407,-1.41504 -0.49219,-1.86621 -0.32813,-0.45117 -0.77734,-0.67676 -1.34765,-0.67676 -0.57032,0 -1.01856,0.22559 -1.34473,0.67676 -0.32617,0.45117 -0.48926,1.07324 -0.48926,1.86621 l 0,0 z m 12.58594,-0.27539 0,0.52734 -4.95703,0 c 0.0469,0.74219 0.27051,1.30762 0.6709,1.69629 0.40039,0.38867 0.958,0.58301 1.67285,0.58301 0.41406,0 0.81542,-0.0508 1.2041,-0.15235 0.38867,-0.10156 0.77441,-0.2539 1.15723,-0.45703 l 0,1.01953 c -0.38673,0.16407 -0.78321,0.28907 -1.18946,0.375 -0.40625,0.0859 -0.81836,0.12891 -1.23632,0.12891 -1.04688,0 -1.87598,-0.30469 -2.48731,-0.91406 -0.61133,-0.60938 -0.91699,-1.43359 -0.91699,-2.47266 0,-1.07421 0.29004,-1.92675 0.87012,-2.55762 0.58007,-0.63085 1.3623,-0.94628 2.34668,-0.94629 0.8828,1e-5 1.58105,0.28419 2.09472,0.85254 0.51367,0.56837 0.7705,1.34083 0.77051,2.31739 l 0,0 z m -1.07812,-0.31641 c -0.008,-0.58984 -0.17286,-1.06054 -0.49512,-1.41211 -0.32227,-0.35156 -0.74903,-0.52734 -1.28027,-0.52734 -0.60157,0 -1.08302,0.16992 -1.44434,0.50976 -0.36133,0.33985 -0.56934,0.81837 -0.62402,1.43555 l 3.84375,-0.006 z"
       id="flowRoot8183-8" />
  </g>
</svg>
